<svg width="1200" height="630" viewBox="0 0 1200 630" xmlns="http://www.w3.org/2000/svg">
  <defs>
    <linearGradient id="bg" x1="0%" y1="0%" x2="100%" y2="100%">
      <stop offset="0%" style="stop-color:#000000"/>
      <stop offset="50%" style="stop-color:#1f2937"/>
      <stop offset="100%" style="stop-color:#000000"/>
    </linearGradient>
    <linearGradient id="textGrad" x1="0%" y1="0%" x2="100%" y2="0%">
      <stop offset="0%" style="stop-color:#fbbf24"/>
      <stop offset="100%" style="stop-color:#f59e0b"/>
    </linearGradient>
  </defs>
  
  <!-- Background -->
  <rect width="100%" height="100%" fill="url(#bg)"/>
  
  <!-- Decorative elements -->
  <circle cx="100" cy="100" r="50" fill="#fbbf24" opacity="0.1"/>
  <circle cx="1100" cy="530" r="80" fill="#f59e0b" opacity="0.1"/>
  <circle cx="200" cy="500" r="30" fill="#fbbf24" opacity="0.2"/>
  <circle cx="1000" cy="100" r="40" fill="#f59e0b" opacity="0.15"/>
  
  <!-- Main content -->
  <text x="600" y="250" font-family="serif" font-size="72" font-weight="bold" text-anchor="middle" fill="url(#textGrad)">
    KiriDev
  </text>
  
  <text x="600" y="320" font-family="sans-serif" font-size="32" text-anchor="middle" fill="#e5e7eb">
    Frontend Developer
  </text>
  
  <text x="600" y="380" font-family="sans-serif" font-size="24" text-anchor="middle" fill="#9ca3af">
    React • Vue • Astro • TypeScript
  </text>
  
  <!-- Decorative sword -->
  <path d="M500 450 L500 480 L510 480 L510 450 Z" fill="#fbbf24"/>
  <path d="M495 450 L515 450 L515 445 L495 445 Z" fill="#f59e0b"/>
  <circle cx="505" cy="440" r="8" fill="#fbbf24"/>
  
  <!-- Decorative shield -->
  <path d="M700 450 L690 470 L700 485 L710 470 Z" fill="#fbbf24"/>
  <circle cx="700" cy="460" r="6" fill="#1f2937"/>
</svg>
